<svg xmlns="http://www.w3.org/2000/svg" width="119.999" height="120" viewBox="0 0 119.999 120"><rect width="119.999" height="120" fill="#fff"/><path d="M86.608,51.023c0,.494.221.712.715.712h7.963c.494,0,.712.223.712.713v7.964a.619.619,0,0,1-.712.655H65.526a.6.6,0,0,1-.66-.655V52.448c0-.49.221-.713.66-.713h9.445a.637.637,0,0,0,.713-.712V33.455c0-.441-.276-.441-.385-.441A52.18,52.18,0,0,0,66.9,34.5a2.444,2.444,0,0,1-.548.057c-.277,0-.331-.113-.331-.5V25.11c0-.385.22-.494.6-.6,3.79-.99,9.389-2.2,19.274-2.2a.636.636,0,0,1,.71.713Z" fill="#847c7a"/><path d="M44.153,22.635H28.516c-.387,0-.55.274-.55.713l-.01,37.171c0,.385.275.548.714.548h9.664c.44,0,.713-.218.713-.657l0-9.39c0-.586.19-.771.719-.771,1.054,0,3.042,0,4.391,0,11.036-.058,17.074-4.995,17.074-13.893S55.189,22.635,44.153,22.635Zm-.495,18.5h-3.91a.614.614,0,0,1-.705-.707V32.67c0-.471.209-.7.706-.7l3.909,0c5.547,0,6.588,2.8,6.588,4.5S49.205,41.137,43.658,41.137Z" fill="#847c7a"/><rect width="119.999" height="36.72" transform="translate(0 83.279)" fill="#847c7a"/><path d="M48.813,92.9H24.93a.292.292,0,0,0-.319.324v16.4a.293.293,0,0,0,.319.325H48.813c7.014,0,10.552-2.377,10.552-8.582C59.365,95.213,55.827,92.9,48.813,92.9Zm-6.185,13.918H35.145c-.211,0-.252-.085-.252-.257V96.291c0-.171.041-.258.252-.258h7.483c4.448,0,6.229,1.3,6.229,5.382S47.076,106.817,42.628,106.817Z" fill="#fff"/><path d="M97.046,109.263l-6.909-4.974c-.169-.128-.274-.194-.274-.28s.062-.132.213-.132c3.494,0,6.208-1.663,6.208-5.336,0-3.653-2.331-5.642-6.634-5.642H63.478a.293.293,0,0,0-.319.324v16.4a.293.293,0,0,0,.319.325h9.63a.293.293,0,0,0,.319-.325v-3.889c0-.2.063-.26.255-.26h5.542a.733.733,0,0,1,.571.173l4.813,4.064a.9.9,0,0,0,.676.237H97.259c.169,0,.254-.063.254-.195C97.513,109.586,97.217,109.393,97.046,109.263Zm-15-6.832h-8.35c-.191,0-.255-.066-.255-.26v-5.88c0-.194.064-.258.255-.258h8.35c2.8,0,3.985.778,3.985,3.134C86.03,101.545,84.843,102.431,82.045,102.431Z" fill="#fff"/></svg>