<svg xmlns="http://www.w3.org/2000/svg" width="251.276" height="44.07" viewBox="0 0 251.276 44.07">
  <g id="Group_17" data-name="Group 17" transform="translate(-307.697 -164.244)">
    <rect id="Rectangle_159" data-name="Rectangle 159" width="249.276" height="42.07" rx="18.865" transform="translate(308.697 165.244)" fill="#fff" stroke="#d1001a" stroke-miterlimit="10" stroke-width="2"/>
    <path id="Path_65" data-name="Path 65" d="M514.953,207.121H326.862A18.218,18.218,0,0,1,308.7,188.956v-5.74a18.218,18.218,0,0,1,18.165-18.165H514.953" fill="#d1001a"/>
    <path id="Path_66" data-name="Path 66" d="M339.187,182.366a5.775,5.775,0,0,1,.466-2.3A5.942,5.942,0,0,1,342.8,176.9a5.738,5.738,0,0,1,2.315-.466h21.709v3.952H345.116a1.977,1.977,0,0,0-1.977,1.976v1.976h23.686v3.953H343.139v7.9h-3.952Z" fill="#fff" fill-rule="evenodd"/>
    <path id="Path_67" data-name="Path 67" d="M423.34,184.342v-1.976a1.977,1.977,0,0,0-1.976-1.976H403.579v5.928h17.785a1.975,1.975,0,0,0,1.976-1.976Zm3.924-1.976v1.976a5.915,5.915,0,0,1-2.512,4.856,5.368,5.368,0,0,1-1.694.79l4.121,6.211h-4.742l-3.953-5.928h-14.9V196.2h-3.952V176.438h21.737a5.878,5.878,0,0,1,4.178,1.736,6.085,6.085,0,0,1,1.256,1.891A5.775,5.775,0,0,1,427.264,182.366Z" fill="#fff" fill-rule="evenodd"/>
    <path id="Path_68" data-name="Path 68" d="M439.18,180.39a1.976,1.976,0,1,0,0,3.952h15.809a5.792,5.792,0,0,1,2.3.466,5.912,5.912,0,0,1,3.162,3.162,5.923,5.923,0,0,1,0,4.6,5.912,5.912,0,0,1-3.162,3.162,5.775,5.775,0,0,1-2.3.466H433.252v-3.98h21.737a1.927,1.927,0,0,0,1.4-.565,1.859,1.859,0,0,0,.578-1.383,1.973,1.973,0,0,0-1.976-1.976H439.18a5.792,5.792,0,0,1-2.3-.466,5.952,5.952,0,0,1-3.161-3.148,5.949,5.949,0,0,1,0-4.616,5.908,5.908,0,0,1,3.161-3.161,5.775,5.775,0,0,1,2.3-.466h21.737v3.952Z" fill="#fff" fill-rule="evenodd"/>
    <path id="Path_69" data-name="Path 69" d="M482.714,196.2h-3.952V180.39H466.905v-3.952h27.666v3.952H482.714Z" fill="#fff" fill-rule="evenodd"/>
    <path id="Path_70" data-name="Path 70" d="M543.7,180.317H526.776a2.1,2.1,0,0,0-1.5.588,1.94,1.94,0,0,0,0,2.843,2.1,2.1,0,0,0,1.5.589H543.7a2.151,2.151,0,0,0,1.514-.589,1.909,1.909,0,0,0,0-2.843A2.155,2.155,0,0,0,543.7,180.317Zm-16.927,12.032H543.7a2.151,2.151,0,0,0,1.514-.589,1.909,1.909,0,0,0,0-2.843,2.155,2.155,0,0,0-1.514-.588H526.776a2.1,2.1,0,0,0-1.5.588,1.94,1.94,0,0,0,0,2.843A2.1,2.1,0,0,0,526.776,192.349Zm16.927,4.02H526.776a6.479,6.479,0,0,1-4.5-1.766,6.1,6.1,0,0,1-1.363-1.91,5.721,5.721,0,0,1-.061-4.537,6.218,6.218,0,0,1,1.2-1.838,5.825,5.825,0,0,1-1.2-1.809,5.534,5.534,0,0,1-.439-2.182,5.626,5.626,0,0,1,.5-2.341,6.246,6.246,0,0,1,1.363-1.938,6.331,6.331,0,0,1,2.013-1.306,6.455,6.455,0,0,1,2.483-.474H543.7a6.571,6.571,0,0,1,2.5.474,6.236,6.236,0,0,1,3.391,3.244,5.626,5.626,0,0,1,.5,2.341,5.7,5.7,0,0,1-.424,2.182,5.383,5.383,0,0,1-1.211,1.809,5.7,5.7,0,0,1,1.635,4.021,5.586,5.586,0,0,1-.5,2.354,6.1,6.1,0,0,1-1.363,1.91A6.426,6.426,0,0,1,546.2,195.9,6.572,6.572,0,0,1,543.7,196.369Z" fill="#d1001a" fill-rule="evenodd"/>
    <path id="Path_71" data-name="Path 71" d="M385.876,189.407H375.814c-4.292,0-4.292-6.5,0-6.5h3.772v-3.9c0-3.906,6.29-3.855,6.29,0Z" fill="#fff" fill-rule="evenodd"/>
    <path id="Path_72" data-name="Path 72" d="M386.4,189.407h3.772c4.292,0,4.292-6.5,0-6.5H386.4" fill="#fff" fill-rule="evenodd"/>
    <path id="Path_73" data-name="Path 73" d="M379.379,189.927V193.7c0,4.292,6.5,4.292,6.5,0v-3.771" fill="#fff" fill-rule="evenodd"/>
  </g>
</svg>
