<svg xmlns="http://www.w3.org/2000/svg" width="43.768" height="52.178" viewBox="0 0 43.768 52.178">
  <g id="_13" data-name="13" transform="translate(-723.874 -413.146)">
    <path id="Path_111" data-name="Path 111" d="M738.678,449.652a11.693,11.693,0,0,1-8.265-9.921s-10.188,11.434-2.854,22.191c0,0,3.294,5.332,12.091,7.642.557.146,1.125.263,1.7.355" transform="translate(0 -5.74)" fill="none" stroke="#d1001a" stroke-linecap="square" stroke-miterlimit="10" stroke-width="2"/>
    <path id="Path_112" data-name="Path 112" d="M739.291,457.612a12.738,12.738,0,0,1-1.225-7.054c3.18,4.688,6.26,3.724,7.26,3.375,3.382-1.178,3.011-9.443,3.011-9.443,5.783,4.374,9.728,8.915,10.115,13.8a10.546,10.546,0,0,1-.863,5.011h0c.69-.165,1.085-.28,1.085-.28,10.174-2.527,11.058-13.633,11.029-15.007-.239-11.1-8.329-14.5-8.329-14.5s2.846,10.173-.535,10.437c0,0-10.051-.373-8.255-28.693,0,0-13.064,9.88-12.465,22.2" transform="translate(-3.066 0)" fill="none" stroke="#d1001a" stroke-linecap="square" stroke-miterlimit="10" stroke-width="2"/>
  </g>
</svg>
