<svg xmlns="http://www.w3.org/2000/svg" width="72" height="11.4" viewBox="0 0 72 11.4"><g transform="translate(-1394 -3885)"><path d="M6,0,7.875,3.75,12,4.35,9,7.275,9.675,11.4,6,9.45,2.325,11.4,3,7.275,0,4.35l4.125-.6Z" transform="translate(1409 3885)" fill="#847c7a"/><path d="M6,0,7.875,3.75,12,4.35,9,7.275,9.675,11.4,6,9.45,2.325,11.4,3,7.275,0,4.35l4.125-.6Z" transform="translate(1424 3885)" fill="#847c7a"/><path d="M6,0,7.875,3.75,12,4.35,9,7.275,9.675,11.4,6,9.45,2.325,11.4,3,7.275,0,4.35l4.125-.6Z" transform="translate(1439 3885)" fill="#847c7a"/><path d="M6,0,7.875,3.75,12,4.35,9,7.275,9.675,11.4,6,9.45,2.325,11.4,3,7.275,0,4.35l4.125-.6Z" transform="translate(1454 3885)" fill="#847c7a"/><path d="M6,0,7.875,3.75,12,4.35,9,7.275,9.675,11.4,6,9.45,2.325,11.4,3,7.275,0,4.35l4.125-.6Z" transform="translate(1394 3885)" fill="#847c7a"/></g></svg>