<svg xmlns="http://www.w3.org/2000/svg" width="63.628" height="74.383" viewBox="0 0 63.628 74.383"><g transform="translate(1 1)"><path d="M1347.713,165.665h7.753a3.2,3.2,0,0,0,3.2-3.2V161.44" transform="translate(-1299.131 -112.807)" fill="none" stroke="#d1001a" stroke-linecap="square" stroke-miterlimit="10" stroke-width="2"/><path d="M1313.863,150.155v31.6l17.088,3.779a7.253,7.253,0,0,0,1.568.172l10.438,0h10.027a3.2,3.2,0,0,0,3.2-3.2v-1.027" transform="translate(-1300.688 -113.326)" fill="none" stroke="#d1001a" stroke-linecap="square" stroke-miterlimit="10" stroke-width="2"/><path d="M1350.121,157.648h8.68a3.2,3.2,0,0,0,3.2-3.2v-3.364a3.2,3.2,0,0,0-3.2-3.2h-19.085l2.162-9.692a11.019,11.019,0,0,0,.127-4.146l-1.309-8.2a2.737,2.737,0,0,0-2.7-2.3h-2.749a2.735,2.735,0,0,0-2.712,2.386l-1.063,8.234-2.389,5.992a9.606,9.606,0,0,1-4.2,4.809l-4.107,2.322" transform="translate(-1300.37 -114.55)" fill="none" stroke="#d1001a" stroke-linecap="square" stroke-miterlimit="10" stroke-width="2"/><path d="M1346.6,175h6.584a3.2,3.2,0,0,0,3.2-3.2v-1.026" transform="translate(-1299.182 -112.377)" fill="none" stroke="#d1001a" stroke-linecap="square" stroke-miterlimit="10" stroke-width="2"/><path d="M1301.268,145.927h13.174v39.032h-13.174V152.737" transform="translate(-1301.268 -113.521)" fill="none" stroke="#d1001a" stroke-linecap="square" stroke-miterlimit="10" stroke-width="2"/><line y2="1.622" transform="translate(6.587 62.759)" fill="none" stroke="#d1001a" stroke-linecap="square" stroke-miterlimit="10" stroke-width="2"/><line y1="1.996" transform="translate(35.547 0)" fill="none" stroke="#d1001a" stroke-linecap="square" stroke-miterlimit="10" stroke-width="2"/><line x2="1.996" transform="translate(46.941 13.755)" fill="none" stroke="#d1001a" stroke-linecap="square" stroke-miterlimit="10" stroke-width="2"/><line x2="1.996" transform="translate(23.105 13.755)" fill="none" stroke="#d1001a" stroke-linecap="square" stroke-miterlimit="10" stroke-width="2"/><line x1="1.297" y1="1.517" transform="translate(25.986 4.596)" fill="none" stroke="#d1001a" stroke-linecap="square" stroke-miterlimit="10" stroke-width="2"/><line y1="1.517" x2="1.297" transform="translate(43.811 4.596)" fill="none" stroke="#d1001a" stroke-linecap="square" stroke-miterlimit="10" stroke-width="2"/></g></svg>