<svg xmlns="http://www.w3.org/2000/svg" width="48.875" height="48.88" viewBox="0 0 48.875 48.88">
  <path id="Path_113" data-name="Path 113" d="M43.492,5.019c-4.718-2.093-10.033-.942-15.055,3.236C23.418,4.075,18.1,2.922,13.383,5.019,7.771,7.51,4,14.321,4,21.966,4,35.761,18.287,48.5,27.944,52.773a1.225,1.225,0,0,0,.987,0C38.587,48.5,52.875,35.761,52.875,21.966,52.875,14.321,49.1,7.51,43.492,5.019ZM14.374,7.251a9.235,9.235,0,0,1,3.765-.8c3.061,0,6.321,1.469,9.479,4.325a1.224,1.224,0,0,0,1.64,0c4.5-4.071,9.2-5.319,13.244-3.528,4.743,2.106,7.93,8.02,7.93,14.715A18.58,18.58,0,0,1,49.952,26c-.011,0-.02-.006-.031-.006H36.99a1.223,1.223,0,0,0-1.017.544l-3.719,5.58L25.865,19.34a1.228,1.228,0,0,0-1.017-.673,1.207,1.207,0,0,0-1.094.541L19.231,26H6.921a18.6,18.6,0,0,1-.478-4.03C6.444,15.271,9.63,9.357,14.374,7.251ZM28.437,50.313C20.759,46.739,10.93,38.031,7.608,28.439H19.884A1.223,1.223,0,0,0,20.9,27.9l3.719-5.58,6.389,12.78a1.223,1.223,0,0,0,1.018.673l.076,0a1.222,1.222,0,0,0,1.017-.544l4.525-6.787H49.267C45.944,38.031,36.116,46.739,28.437,50.313Z" transform="translate(-4 -3.996)" fill="#d1001a"/>
</svg>
