<svg xmlns="http://www.w3.org/2000/svg" width="136.973" height="19.946" viewBox="0 0 136.973 19.946"><g transform="translate(-823.926 -545.87)"><path d="M12,17.844,6.183,20.9l1.111-6.477L2.588,9.838l6.5-.945L12,3l2.908,5.893,6.5.945-4.706,4.587L17.817,20.9Z" transform="translate(938.412 544)" fill="rgba(255,255,255,0)" stroke="#313131" stroke-linecap="square" stroke-width="1"/><path d="M12,17.844,6.183,20.9l1.111-6.477L2.588,9.838l6.5-.945L12,3l2.908,5.893,6.5.945-4.706,4.587L17.817,20.9Z" transform="translate(909.412 544)" fill="#fff" stroke="#313131" stroke-linecap="square" stroke-width="1"/><path d="M12,17.844,6.183,20.9l1.111-6.477L2.588,9.838l6.5-.945L12,3l2.908,5.893,6.5.945-4.706,4.587L17.817,20.9Z" transform="translate(880.412 544)" fill="#d1001a" stroke="#d1001a" stroke-linecap="square" stroke-width="1"/><path d="M12,17.844,6.183,20.9l1.111-6.477L2.588,9.838l6.5-.945L12,3l2.908,5.893,6.5.945-4.706,4.587L17.817,20.9Z" transform="translate(851.412 544)" fill="#d1001a" stroke="#d1001a" stroke-linecap="square" stroke-width="1"/><path d="M12,17.844,6.183,20.9l1.111-6.477L2.588,9.838l6.5-.945L12,3l2.908,5.893,6.5.945-4.706,4.587L17.817,20.9Z" transform="translate(822.412 544)" fill="#d1001a" stroke="#d1001a" stroke-linecap="square" stroke-width="1"/></g></svg>