<svg xmlns="http://www.w3.org/2000/svg" width="42" height="11.4" viewBox="0 0 42 11.4"><g transform="translate(-939 -3884)"><path d="M6,0,7.875,3.75,12,4.35,9,7.275,9.675,11.4,6,9.45,2.325,11.4,3,7.275,0,4.35l4.125-.6Z" transform="translate(954 3884)" fill="#847c7a"/><path d="M6,0,7.875,3.75,12,4.35,9,7.275,9.675,11.4,6,9.45,2.325,11.4,3,7.275,0,4.35l4.125-.6Z" transform="translate(969 3884)" fill="#847c7a"/><path d="M6,0,7.875,3.75,12,4.35,9,7.275,9.675,11.4,6,9.45,2.325,11.4,3,7.275,0,4.35l4.125-.6Z" transform="translate(939 3884)" fill="#847c7a"/></g></svg>